<svg width="256" height="256" viewBox="0 0 256 256" fill="none" xmlns="http://www.w3.org/2000/svg">
<path fill-rule="evenodd" clip-rule="evenodd" d="M0.33153 227.653C-0.11051 227.211 -0.11051 226.495 0.33153 226.052L33.8299 192.554C34.172 192.212 34.2198 191.674 33.9466 191.275C21.517 173.103 14.2469 151.123 14.2469 127.445C14.2469 64.9272 64.9272 14.247 127.445 14.247C151.123 14.247 173.103 21.5169 191.275 33.9469C191.674 34.2201 192.212 34.1724 192.554 33.8302L226.053 0.331633C226.495 -0.110544 227.211 -0.110544 227.653 0.331633L255.668 28.3469C256.111 28.7891 256.111 29.5054 255.668 29.9476L221.954 63.6624C221.615 64.0008 221.564 64.5312 221.829 64.93C233.717 82.8427 240.642 104.335 240.642 127.445C240.642 189.962 189.962 240.642 127.445 240.642C104.335 240.642 82.8427 233.717 64.93 221.829C64.5312 221.564 64.0008 221.615 63.6624 221.954L29.9474 255.668C29.5054 256.111 28.7886 256.111 28.3466 255.668L0.33153 227.653ZM127.445 198.759C115.667 198.759 104.557 195.904 94.7674 190.848C82.0952 184.304 71.6367 174.073 64.8111 161.573C59.276 151.436 56.1301 139.808 56.1301 127.445C56.1301 88.0586 88.0587 56.1301 127.445 56.1301C139.808 56.1301 151.436 59.2762 161.573 64.8111C174.073 71.6361 184.305 82.0959 190.849 94.7676C195.904 104.557 198.759 115.667 198.759 127.445C198.759 166.83 166.831 198.759 127.445 198.759Z" fill="black"/>
</svg>
